<svg width="300" height="300" viewBox="0 0 300 300" fill="none" xmlns="http://www.w3.org/2000/svg">
<rect x="3" y="3" width="294" height="294" rx="147" fill="#FF601C" stroke="#F1DAC4" stroke-width="6" stroke-linejoin="round"/>
<path d="M35.6092 118.741C33.0352 118.741 30.8252 118.299 28.9792 117.415C27.1332 116.505 25.6252 115.322 24.4552 113.866C23.2852 112.384 22.4142 110.798 21.8422 109.108C21.2962 107.392 21.0232 105.728 21.0232 104.116V103.258C21.0232 101.49 21.3092 99.748 21.8812 98.032C22.4532 96.29 23.3242 94.717 24.4942 93.313C25.6902 91.909 27.1852 90.791 28.9792 89.959C30.7992 89.101 32.9442 88.672 35.4142 88.672C37.9882 88.672 40.2632 89.153 42.2392 90.115C44.2152 91.077 45.7882 92.416 46.9582 94.132C48.1542 95.822 48.8562 97.811 49.0642 100.099H42.6292C42.4472 98.955 42.0312 97.98 41.3812 97.174C40.7312 96.368 39.8862 95.744 38.8462 95.302C37.8322 94.86 36.6882 94.639 35.4142 94.639C34.1402 94.639 33.0092 94.86 32.0212 95.302C31.0332 95.744 30.2012 96.368 29.5252 97.174C28.8752 97.98 28.3682 98.942 28.0042 100.06C27.6662 101.152 27.4972 102.374 27.4972 103.726C27.4972 105.052 27.6662 106.274 28.0042 107.392C28.3682 108.484 28.8882 109.446 29.5642 110.278C30.2662 111.084 31.1242 111.708 32.1382 112.15C33.1522 112.566 34.3092 112.774 35.6092 112.774C37.5852 112.774 39.2492 112.293 40.6012 111.331C41.9792 110.369 42.8112 109.043 43.0972 107.353H49.4932C49.2592 109.433 48.5572 111.344 47.3872 113.086C46.2432 114.802 44.6702 116.18 42.6682 117.22C40.6922 118.234 38.3392 118.741 35.6092 118.741ZM63.7986 118.741C61.9266 118.741 60.2626 118.455 58.8066 117.883C57.3506 117.285 56.1156 116.479 55.1016 115.465C54.1136 114.451 53.3596 113.294 52.8396 111.994C52.3196 110.668 52.0596 109.277 52.0596 107.821V106.924C52.0596 105.442 52.3196 104.038 52.8396 102.712C53.3856 101.36 54.1656 100.177 55.1796 99.163C56.2196 98.149 57.4676 97.356 58.9236 96.784C60.3796 96.186 62.0046 95.887 63.7986 95.887C65.6446 95.887 67.2826 96.186 68.7126 96.784C70.1686 97.356 71.4036 98.149 72.4176 99.163C73.4316 100.177 74.2116 101.36 74.7576 102.712C75.3036 104.038 75.5766 105.442 75.5766 106.924V107.821C75.5766 109.277 75.3166 110.668 74.7966 111.994C74.2766 113.294 73.5096 114.451 72.4956 115.465C71.5076 116.479 70.2856 117.285 68.8296 117.883C67.3736 118.455 65.6966 118.741 63.7986 118.741ZM63.7986 113.476C65.0206 113.476 66.0346 113.216 66.8406 112.696C67.6466 112.176 68.2576 111.448 68.6736 110.512C69.1156 109.576 69.3366 108.536 69.3366 107.392C69.3366 106.17 69.1156 105.104 68.6736 104.194C68.2316 103.258 67.5946 102.517 66.7626 101.971C65.9566 101.425 64.9686 101.152 63.7986 101.152C62.6546 101.152 61.6666 101.425 60.8346 101.971C60.0026 102.517 59.3656 103.258 58.9236 104.194C58.5076 105.104 58.2996 106.17 58.2996 107.392C58.2996 108.536 58.5076 109.576 58.9236 110.512C59.3396 111.448 59.9636 112.176 60.7956 112.696C61.6276 113.216 62.6286 113.476 63.7986 113.476ZM88.7455 118.702C87.2375 118.702 85.8595 118.429 84.6115 117.883C83.3895 117.337 82.3235 116.583 81.4135 115.621C80.5035 114.633 79.8015 113.476 79.3075 112.15C78.8395 110.824 78.6055 109.394 78.6055 107.86V106.963C78.6055 105.429 78.8265 103.999 79.2685 102.673C79.7365 101.347 80.3995 100.19 81.2575 99.202C82.1415 98.188 83.1945 97.408 84.4165 96.862C85.6385 96.29 87.0035 96.004 88.5115 96.004C90.2275 96.004 91.7095 96.381 92.9575 97.135C94.2055 97.863 95.1805 98.955 95.8825 100.411C96.5845 101.841 96.9745 103.609 97.0525 105.715L95.4145 104.194V89.53H101.693V118H96.7405V109.147H97.5985C97.5205 111.175 97.0915 112.904 96.3115 114.334C95.5575 115.764 94.5305 116.856 93.2305 117.61C91.9305 118.338 90.4355 118.702 88.7455 118.702ZM90.3055 113.476C91.2675 113.476 92.1385 113.268 92.9185 112.852C93.7245 112.41 94.3615 111.773 94.8295 110.941C95.3235 110.109 95.5705 109.108 95.5705 107.938V106.495C95.5705 105.351 95.3235 104.389 94.8295 103.609C94.3355 102.829 93.6855 102.231 92.8795 101.815C92.0735 101.399 91.2025 101.191 90.2665 101.191C89.2265 101.191 88.2905 101.464 87.4585 102.01C86.6525 102.53 86.0155 103.258 85.5475 104.194C85.0795 105.104 84.8455 106.17 84.8455 107.392C84.8455 108.64 85.0795 109.719 85.5475 110.629C86.0155 111.539 86.6655 112.241 87.4975 112.735C88.3295 113.229 89.2655 113.476 90.3055 113.476ZM117.142 118.741C115.322 118.741 113.71 118.429 112.306 117.805C110.928 117.181 109.771 116.349 108.835 115.309C107.925 114.243 107.223 113.06 106.729 111.76C106.261 110.434 106.027 109.082 106.027 107.704V106.924C106.027 105.494 106.261 104.129 106.729 102.829C107.223 101.503 107.925 100.32 108.835 99.28C109.745 98.24 110.876 97.421 112.228 96.823C113.606 96.199 115.166 95.887 116.908 95.887C119.196 95.887 121.12 96.407 122.68 97.447C124.266 98.461 125.475 99.8 126.307 101.464C127.139 103.102 127.555 104.896 127.555 106.846V108.952H108.64V105.403H123.772L121.744 107.041C121.744 105.767 121.562 104.675 121.198 103.765C120.834 102.855 120.288 102.166 119.56 101.698C118.858 101.204 117.974 100.957 116.908 100.957C115.816 100.957 114.893 101.204 114.139 101.698C113.385 102.192 112.813 102.92 112.423 103.882C112.033 104.818 111.838 105.975 111.838 107.353C111.838 108.627 112.02 109.745 112.384 110.707C112.748 111.643 113.32 112.371 114.1 112.891C114.88 113.411 115.894 113.671 117.142 113.671C118.286 113.671 119.222 113.45 119.95 113.008C120.678 112.566 121.172 112.02 121.432 111.37H127.165C126.853 112.8 126.242 114.074 125.332 115.192C124.422 116.31 123.278 117.181 121.9 117.805C120.522 118.429 118.936 118.741 117.142 118.741ZM137.657 118.156V112.189H142.961C144.287 112.189 145.483 111.994 146.549 111.604C147.615 111.188 148.525 110.616 149.279 109.888C150.033 109.134 150.605 108.237 150.995 107.197C151.385 106.131 151.58 104.961 151.58 103.687C151.58 102.361 151.385 101.178 150.995 100.138C150.605 99.098 150.033 98.214 149.279 97.486C148.525 96.758 147.615 96.212 146.549 95.848C145.483 95.458 144.287 95.263 142.961 95.263H137.657V89.296H142.61C145.184 89.296 147.433 89.673 149.357 90.427C151.281 91.181 152.893 92.208 154.193 93.508C155.493 94.808 156.455 96.303 157.079 97.993C157.729 99.657 158.054 101.412 158.054 103.258V104.116C158.054 105.832 157.729 107.535 157.079 109.225C156.455 110.889 155.493 112.397 154.193 113.749C152.893 115.075 151.281 116.141 149.357 116.947C147.433 117.753 145.184 118.156 142.61 118.156H137.657ZM132.041 118.156V89.296H138.437V118.156H132.041ZM172.572 118.741C170.7 118.741 169.036 118.455 167.58 117.883C166.124 117.285 164.889 116.479 163.875 115.465C162.887 114.451 162.133 113.294 161.613 111.994C161.093 110.668 160.833 109.277 160.833 107.821V106.924C160.833 105.442 161.093 104.038 161.613 102.712C162.159 101.36 162.939 100.177 163.953 99.163C164.993 98.149 166.241 97.356 167.697 96.784C169.153 96.186 170.778 95.887 172.572 95.887C174.418 95.887 176.056 96.186 177.486 96.784C178.942 97.356 180.177 98.149 181.191 99.163C182.205 100.177 182.985 101.36 183.531 102.712C184.077 104.038 184.35 105.442 184.35 106.924V107.821C184.35 109.277 184.09 110.668 183.57 111.994C183.05 113.294 182.283 114.451 181.269 115.465C180.281 116.479 179.059 117.285 177.603 117.883C176.147 118.455 174.47 118.741 172.572 118.741ZM172.572 113.476C173.794 113.476 174.808 113.216 175.614 112.696C176.42 112.176 177.031 111.448 177.447 110.512C177.889 109.576 178.11 108.536 178.11 107.392C178.11 106.17 177.889 105.104 177.447 104.194C177.005 103.258 176.368 102.517 175.536 101.971C174.73 101.425 173.742 101.152 172.572 101.152C171.428 101.152 170.44 101.425 169.608 101.971C168.776 102.517 168.139 103.258 167.697 104.194C167.281 105.104 167.073 106.17 167.073 107.392C167.073 108.536 167.281 109.576 167.697 110.512C168.113 111.448 168.737 112.176 169.569 112.696C170.401 113.216 171.402 113.476 172.572 113.476ZM198.416 118.273C196.258 118.273 194.516 118.013 193.19 117.493C191.864 116.947 190.889 116.05 190.265 114.802C189.667 113.528 189.368 111.812 189.368 109.654V90.856H195.179V109.888C195.179 110.902 195.439 111.682 195.959 112.228C196.505 112.748 197.272 113.008 198.26 113.008H201.419V118.273H198.416ZM186.131 101.191V96.628H201.419V101.191H186.131ZM211.582 118.156V112.189H216.886C218.212 112.189 219.408 111.994 220.474 111.604C221.54 111.188 222.45 110.616 223.204 109.888C223.958 109.134 224.53 108.237 224.92 107.197C225.31 106.131 225.505 104.961 225.505 103.687C225.505 102.361 225.31 101.178 224.92 100.138C224.53 99.098 223.958 98.214 223.204 97.486C222.45 96.758 221.54 96.212 220.474 95.848C219.408 95.458 218.212 95.263 216.886 95.263H211.582V89.296H216.535C219.109 89.296 221.358 89.673 223.282 90.427C225.206 91.181 226.818 92.208 228.118 93.508C229.418 94.808 230.38 96.303 231.004 97.993C231.654 99.657 231.979 101.412 231.979 103.258V104.116C231.979 105.832 231.654 107.535 231.004 109.225C230.38 110.889 229.418 112.397 228.118 113.749C226.818 115.075 225.206 116.141 223.282 116.947C221.358 117.753 219.109 118.156 216.535 118.156H211.582ZM205.966 118.156V89.296H212.362V118.156H205.966ZM245.873 118.741C244.053 118.741 242.441 118.429 241.037 117.805C239.659 117.181 238.502 116.349 237.566 115.309C236.656 114.243 235.954 113.06 235.46 111.76C234.992 110.434 234.758 109.082 234.758 107.704V106.924C234.758 105.494 234.992 104.129 235.46 102.829C235.954 101.503 236.656 100.32 237.566 99.28C238.476 98.24 239.607 97.421 240.959 96.823C242.337 96.199 243.897 95.887 245.639 95.887C247.927 95.887 249.851 96.407 251.411 97.447C252.997 98.461 254.206 99.8 255.038 101.464C255.87 103.102 256.286 104.896 256.286 106.846V108.952H237.371V105.403H252.503L250.475 107.041C250.475 105.767 250.293 104.675 249.929 103.765C249.565 102.855 249.019 102.166 248.291 101.698C247.589 101.204 246.705 100.957 245.639 100.957C244.547 100.957 243.624 101.204 242.87 101.698C242.116 102.192 241.544 102.92 241.154 103.882C240.764 104.818 240.569 105.975 240.569 107.353C240.569 108.627 240.751 109.745 241.115 110.707C241.479 111.643 242.051 112.371 242.831 112.891C243.611 113.411 244.625 113.671 245.873 113.671C247.017 113.671 247.953 113.45 248.681 113.008C249.409 112.566 249.903 112.02 250.163 111.37H255.896C255.584 112.8 254.973 114.074 254.063 115.192C253.153 116.31 252.009 117.181 250.631 117.805C249.253 118.429 247.667 118.741 245.873 118.741ZM264.364 118L257.968 96.628H264.403L270.409 118H264.364ZM266.314 118V112.813H272.593V118H266.314ZM268.615 118L273.802 96.628H279.808L274.27 118H268.615Z" fill="#EAF6FF"/>
<mask id="path-3-outside-1_1_62" maskUnits="userSpaceOnUse" x="75" y="142" width="150" height="88" fill="black">
<rect fill="white" x="75" y="142" width="150" height="88"/>
<path d="M122.668 164.3V177.8L77.0684 191.8V178.8L122.668 164.3ZM77.0684 186.3L122.668 200.2V214L77.0684 199.5V186.3ZM88.5684 185.2V193.4H85.5684V185.2H88.5684ZM131.439 228L152.139 144H168.539L147.839 228H131.439ZM177.361 214V200.5L222.961 186.5V199.5L177.361 214ZM222.961 192L177.361 178.1V164.3L222.961 178.8V192ZM211.461 193.1V184.9H214.461V193.1H211.461Z"/>
</mask>
<path d="M122.668 164.3V177.8L77.0684 191.8V178.8L122.668 164.3ZM77.0684 186.3L122.668 200.2V214L77.0684 199.5V186.3ZM88.5684 185.2V193.4H85.5684V185.2H88.5684ZM131.439 228L152.139 144H168.539L147.839 228H131.439ZM177.361 214V200.5L222.961 186.5V199.5L177.361 214ZM222.961 192L177.361 178.1V164.3L222.961 178.8V192ZM211.461 193.1V184.9H214.461V193.1H211.461Z" fill="#151515"/>
<path d="M122.668 164.3H124.668V161.565L122.062 162.394L122.668 164.3ZM122.668 177.8L123.255 179.712L124.668 179.278V177.8H122.668ZM77.0684 191.8H75.0684V194.506L77.6554 193.712L77.0684 191.8ZM77.0684 178.8L76.4623 176.894L75.0684 177.337V178.8H77.0684ZM77.0684 186.3L77.6515 184.387L75.0684 183.599V186.3H77.0684ZM122.668 200.2H124.668V198.719L123.252 198.287L122.668 200.2ZM122.668 214L122.062 215.906L124.668 216.735V214H122.668ZM77.0684 199.5H75.0684V200.963L76.4623 201.406L77.0684 199.5ZM88.5684 185.2H90.5684V183.2H88.5684V185.2ZM88.5684 193.4V195.4H90.5684V193.4H88.5684ZM85.5684 193.4H83.5684V195.4H85.5684V193.4ZM85.5684 185.2V183.2H83.5684V185.2H85.5684ZM120.668 164.3V177.8H124.668V164.3H120.668ZM122.081 175.888L76.4814 189.888L77.6554 193.712L123.255 179.712L122.081 175.888ZM79.0684 191.8V178.8H75.0684V191.8H79.0684ZM77.6744 180.706L123.274 166.206L122.062 162.394L76.4623 176.894L77.6744 180.706ZM76.4852 188.213L122.085 202.113L123.252 198.287L77.6515 184.387L76.4852 188.213ZM120.668 200.2V214H124.668V200.2H120.668ZM123.274 212.094L77.6744 197.594L76.4623 201.406L122.062 215.906L123.274 212.094ZM79.0684 199.5V186.3H75.0684V199.5H79.0684ZM86.5684 185.2V193.4H90.5684V185.2H86.5684ZM88.5684 191.4H85.5684V195.4H88.5684V191.4ZM87.5684 193.4V185.2H83.5684V193.4H87.5684ZM85.5684 187.2H88.5684V183.2H85.5684V187.2ZM131.439 228L129.497 227.521L128.886 230H131.439V228ZM152.139 144V142H150.572L150.197 143.521L152.139 144ZM168.539 144L170.481 144.479L171.091 142H168.539V144ZM147.839 228V230H149.406L149.781 228.479L147.839 228ZM133.381 228.479L154.081 144.479L150.197 143.521L129.497 227.521L133.381 228.479ZM152.139 146H168.539V142H152.139V146ZM166.597 143.521L145.897 227.521L149.781 228.479L170.481 144.479L166.597 143.521ZM147.839 226H131.439V230H147.839V226ZM177.361 214H175.361V216.735L177.967 215.906L177.361 214ZM177.361 200.5L176.774 198.588L175.361 199.022V200.5H177.361ZM222.961 186.5H224.961V183.794L222.374 184.588L222.961 186.5ZM222.961 199.5L223.567 201.406L224.961 200.963V199.5H222.961ZM222.961 192L222.378 193.913L224.961 194.701V192H222.961ZM177.361 178.1H175.361V179.581L176.778 180.013L177.361 178.1ZM177.361 164.3L177.967 162.394L175.361 161.565V164.3H177.361ZM222.961 178.8H224.961V177.337L223.567 176.894L222.961 178.8ZM211.461 193.1H209.461V195.1H211.461V193.1ZM211.461 184.9V182.9H209.461V184.9H211.461ZM214.461 184.9H216.461V182.9H214.461V184.9ZM214.461 193.1V195.1H216.461V193.1H214.461ZM179.361 214V200.5H175.361V214H179.361ZM177.948 202.412L223.548 188.412L222.374 184.588L176.774 198.588L177.948 202.412ZM220.961 186.5V199.5H224.961V186.5H220.961ZM222.355 197.594L176.755 212.094L177.967 215.906L223.567 201.406L222.355 197.594ZM223.544 190.087L177.944 176.187L176.778 180.013L222.378 193.913L223.544 190.087ZM179.361 178.1V164.3H175.361V178.1H179.361ZM176.755 166.206L222.355 180.706L223.567 176.894L177.967 162.394L176.755 166.206ZM220.961 178.8V192H224.961V178.8H220.961ZM213.461 193.1V184.9H209.461V193.1H213.461ZM211.461 186.9H214.461V182.9H211.461V186.9ZM212.461 184.9V193.1H216.461V184.9H212.461ZM214.461 191.1H211.461V195.1H214.461V191.1Z" fill="#F1DAC4" mask="url(#path-3-outside-1_1_62)"/>
</svg>
